<svg id="Layer_1" data-name="Layer 1" xmlns="http://www.w3.org/2000/svg" viewBox="0 0 933 915"><defs><style>.cls-1{fill:#363cdd;stroke:#363cdd;}.cls-1,.cls-2{stroke-miterlimit:10;stroke-width:6px;}.cls-2{fill:#5155e1;stroke:#5155e1;}</style></defs><rect class="cls-1" x="3" y="480" width="216" height="432" rx="90"/><rect class="cls-1" x="3" y="241.5" width="216" height="216" rx="90"/><path class="cls-2" d="M99,225H589.5A130.5,130.5,0,0,1,720,355.5h0A130.5,130.5,0,0,1,589.5,486h-252a90,90,0,0,0-90,90V828a90,90,0,0,0,90,90h36a90,90,0,0,0,90-90V702h126C780.87,702,936,546.87,936,355.5h0C936,164.13,780.87,9,589.5,9H99A90,90,0,0,0,9,99v36A90,90,0,0,0,99,225Z" transform="translate(-6 -6)"/></svg>